<svg id="sun-tui" viewBox="0 0 120 120">
  <path fill="#082A5E" fill-rule="evenodd" d="M76,60.0004991 C76,68.8377577 68.8367595,76 60.0004991,76 C51.1632405,76 44,68.8377577 44,60.0004991 C44,51.1622423 51.1632405,44 60.0004991,44 C68.8367595,44 76,51.1622423 76,60.0004991 M104.977171,55.9938785 L90.081284,55.9362973 C87.8945464,55.9029608 85.8088595,55.0392432 84.2294367,53.4603069 C83.5837226,52.8147917 83.0643219,52.0904811 82.6702241,51.3176812 C82.514606,50.9115824 82.3488828,50.5095244 82.172044,50.1145378 C81.2171147,47.1869898 81.9042596,43.8402104 84.2344892,41.5096882 L94.6528186,31.0622412 C98.4472732,27.2568329 92.7591281,21.5562969 88.9434528,25.3394809 L78.3684949,35.8273358 C76.8001877,37.3507113 74.7145008,38.2144289 72.4812798,38.2144289 C71.5091719,38.2144289 70.5744527,38.049767 69.704406,37.7477184 C69.4103484,37.6194235 69.1132593,37.4961796 68.8131387,37.3789968 C66.1211474,36.080895 64.2244254,33.3988246 64.0455656,30.2591354 C64.0496077,30.0944735 64.0526392,15.0405327 64.0526392,15.0405327 C64.0526392,9.65719825 55.975655,9.65113707 55.9685815,15.0344715 C55.9685815,15.0344715 55.9503923,30.0934633 55.9544344,30.2550946 C55.7765851,33.3664983 53.9152308,36.0263444 51.2677019,37.338589 C50.9069508,37.477996 50.5502418,37.6254846 50.1985853,37.7800446 C49.3558223,38.0618893 48.4554603,38.2144289 47.5177097,38.2144289 C45.2844887,38.2144289 43.1998123,37.3507113 41.6618204,35.8576416 L31.0555367,25.3394809 C27.2408719,21.5562969 21.5527268,27.2558227 25.3461709,31.0622412 L35.7685423,41.5147392 C38.0553201,43.7998026 38.7576226,47.069807 37.8754498,49.9599778 C37.6511172,50.4529534 37.4429527,50.9550208 37.2519669,51.4651698 C36.8679741,52.182409 36.3738361,52.8572199 35.7685423,53.4613171 C34.19013,55.0402534 32.1044431,55.9029608 29.9601468,55.9352871 L15.0228292,55.9938785 C12.3510481,56.0049906 11.0151576,57.9970971 11,60.0003158 C11.0151576,62.0025243 12.3510481,63.9946308 15.0228292,64.0057429 L29.9601468,64.0643343 C32.1044431,64.0966606 34.19013,64.9603781 35.7685423,66.5383043 C36.3738361,67.1434117 36.8679741,67.8172124 37.2519669,68.5344516 C37.4429527,69.0446006 37.6511172,69.546668 37.8754498,70.0396436 C38.7576226,72.9308246 38.0553201,76.1998188 35.7685423,78.4858923 L25.3461709,88.9383903 C21.5527268,92.7437987 27.2408719,98.4433245 31.0555367,94.6601405 L41.6618204,84.1419797 C43.1998123,82.6489101 45.2844887,81.7851925 47.5177097,81.7851925 C48.4554603,81.7851925 49.3558223,81.9387423 50.1985853,82.2195768 C50.5502418,82.3741367 50.9069508,82.5216254 51.2677019,82.6610324 C53.9152308,83.973277 55.7765851,86.6331231 55.9544344,89.7445267 C55.9503923,89.9071683 55.9685815,104.96515 55.9685815,104.96515 C55.975655,110.348484 64.0526392,110.343433 64.0526392,104.959089 C64.0526392,104.959089 64.0496077,89.9051479 64.0455656,89.740486 C64.2244254,86.6007968 66.1211474,83.9197366 68.8131387,82.6216348 C69.1132593,82.5034418 69.4103484,82.3801979 69.704406,82.251903 C70.5744527,81.9508646 71.5091719,81.7851925 72.4812798,81.7851925 C74.7145008,81.7851925 76.8001877,82.6489101 78.3684949,84.1722856 L88.9434528,94.6601405 C92.7591281,98.4443347 98.4472732,92.7427885 94.6528186,88.9383903 L84.2344892,78.4899331 C81.9042596,76.159411 81.2171147,72.8136418 82.172044,69.8850836 C82.3488828,69.490097 82.514606,69.088039 82.6702241,68.6819402 C83.0643219,67.9091403 83.5837226,67.1848297 84.2294367,66.5393145 C85.8088595,64.9603781 87.8945464,64.0966606 90.081284,64.0643343 L104.977171,64.0057429 C107.648952,63.9946308 108.984842,62.0025243 109,60.0003158 C108.984842,57.9970971 107.648952,56.0049906 104.977171,55.9938785"></path>
</svg>